<svg xmlns="http://www.w3.org/2000/svg" version="1.1" xmlns:xlink="http://www.w3.org/1999/xlink" xmlns:svgjs="http://svgjs.com/svgjs" width="857" height="915"><svg xmlns="http://www.w3.org/2000/svg" width="857" height="915" viewBox="0 0 8570 9150"><g id="SvgjsG1002" fill="rgb(222,16,15)" style="transform: none;"><g style="transform: none;"><path id="SvgjsPath1001" d="M 4135 8808 c -197 -10 -589 -65 -700 -98 -16 -5 -77 -21 -135 -35 -545 -138 -1149 -449 -1595 -824 -236 -198 -525 -512 -699 -761 -158 -224 -323 -527 -420 -771 -80 -200 -117 -179 316 -179 374 0 374 0 407 83 158 393 502 851 867 1155 86 71 295 223 384 278 406 253 920 427 1450 491 222 26 633 24 848 -5 564 -77 1030 -246 1489 -540 217 -138 341 -240 558 -457 267 -267 418 -472 518 -705 126 -294 127 -604 3 -835 -132 -247 -430 -458 -726 -514 -64 -12 -656 -96 -1000 -141 -280 -37 -652 -87 -995 -135 -137 -19 -268 -37 -290 -40 -22 -2 -154 -20 -294 -40 -139 -20 -255 -34 -257 -32 -5 5 -210 419 -239 482 -10 22 -194 393 -408 825 -214 432 -470 948 -568 1148 -99 199 -186 365 -194 368 -16 6 -152 -105 -330 -269 -93 -86 -173 -169 -337 -349 -24 -26 -25 -32 -14 -56 7 -15 86 -175 175 -357 89 -181 195 -397 236 -480 40 -82 164 -334 275 -560 245 -496 422 -867 416 -872 -2 -2 -111 -17 -242 -33 -132 -17 -304 -39 -384 -50 -80 -11 -260 -33 -400 -50 -588 -70 -670 -86 -825 -160 -176 -84 -304 -212 -386 -385 -67 -141 -80 -202 -86 -390 -6 -174 12 -320 62 -508 83 -314 294 -716 535 -1022 287 -363 652 -692 1037 -934 554 -348 1143 -554 1838 -643 147 -19 565 -15 750 6 466 53 1008 212 1408 413 723 361 1305 884 1712 1538 86 137 213 399 217 445 3 35 3 35 -359 38 -362 2 -362 2 -385 -50 -116 -273 -369 -606 -646 -849 -239 -210 -464 -362 -752 -508 -551 -280 -1108 -405 -1722 -388 -277 8 -484 40 -762 118 -546 154 -1084 454 -1446 804 -413 401 -634 766 -726 1202 -90 423 69 746 442 903 59 24 121 37 350 70 154 22 405 58 559 80 154 22 332 47 395 55 63 8 165 21 225 29 61 9 196 27 300 41 105 14 366 50 580 80 215 30 462 63 550 75 355 45 922 121 953 126 19 4 32 2 32 -4 0 -5 -17 -48 -39 -94 -21 -45 -53 -114 -71 -153 -18 -38 -81 -180 -140 -315 -59 -135 -119 -271 -134 -302 -14 -31 -26 -59 -26 -61 0 -3 -50 -117 -111 -254 -176 -394 -248 -559 -305 -698 -48 -117 -74 -160 -74 -123 0 19 -255 584 -393 868 -41 85 -94 196 -117 245 -80 170 -183 390 -231 494 -26 57 -54 110 -61 116 -10 10 -54 7 -213 -15 -110 -16 -321 -45 -470 -65 -148 -21 -274 -41 -278 -45 -10 -9 19 -73 560 -1220 25 -52 68 -144 95 -205 28 -60 71 -153 95 -205 25 -52 71 -153 103 -225 32 -71 84 -184 115 -250 140 -296 247 -530 390 -862 32 -73 61 -133 65 -133 7 0 33 56 146 320 198 461 325 750 729 1655 165 370 282 636 485 1100 178 409 215 486 235 490 11 2 130 18 265 35 135 17 322 42 415 55 94 13 242 33 330 45 398 52 477 71 628 146 136 69 201 116 307 223 105 106 164 204 215 356 106 313 63 704 -120 1107 -348 766 -1080 1430 -2000 1813 -267 112 -576 207 -835 259 -324 65 -753 93 -1125 74 z "></path><path id="SvgjsPath1000" d="M 6815 7068 c -15 -35 -33 -76 -41 -93 -27 -63 -256 -559 -349 -755 -113 -240 -283 -611 -321 -702 -25 -61 -47 -110 -168 -377 -31 -68 -55 -125 -53 -127 4 -4 268 31 313 41 19 4 37 36 100 180 115 265 611 1357 719 1583 38 79 43 96 32 111 -28 40 -183 201 -193 201 -6 0 -24 -28 -39 -62 z "></path></g></g></svg><style>@media (prefers-color-scheme: light) { :root { filter: none; } }
@media (prefers-color-scheme: dark) { :root { filter: contrast(0.9090909090909091) brightness(1.5); } }
</style></svg>